<svg width="24" height="24" viewBox="0 0 24 24" fill="none" xmlns="http://www.w3.org/2000/svg">
<g id="box_2_fill 2" clip-path="url(#clip0_374_8524)">
<g id="&#233;&#161;&#181;&#233;&#157;&#162;-1">
<g id="File">
<g id="box_2_fill">
<path id="&#229;&#189;&#162;&#231;&#138;&#182;" d="M21 10V19C21 20.1046 20.1046 21 19 21H5C3.89543 21 3 20.1046 3 19V10H21ZM14 13H10C9.44772 13 9 13.4477 9 14C9 14.5523 9.44772 15 10 15H14C14.5523 15 15 14.5523 15 14C15 13.4477 14.5523 13 14 13ZM20 3C21.1046 3 22 3.89543 22 5V8H2V5C2 3.89543 2.89543 3 4 3H20Z" fill="#3264FF"/>
</g>
</g>
</g>
</g>
<defs>
<clipPath id="clip0_374_8524">
<rect width="24" height="24" fill="white"/>
</clipPath>
</defs>
</svg>
