<svg width="16" height="16" viewBox="0 0 16 16" fill="none" xmlns="http://www.w3.org/2000/svg">
<g id="building_1_fill (1) 1" clip-path="url(#clip0_374_8424)">
<g id="&#233;&#161;&#181;&#233;&#157;&#162;-1">
<g id="Building">
<g id="building_1_fill">
<path id="&#229;&#189;&#162;&#231;&#138;&#182;" fill-rule="evenodd" clip-rule="evenodd" d="M8.66658 2C9.36951 2 9.94536 2.54392 9.99626 3.23383L9.99992 3.33333V12.6667H10.6666V6.33333C10.6666 6.16969 10.7845 6.03359 10.94 6.00537L10.9999 6H11.9999C12.7028 6 13.2787 6.54392 13.3296 7.23383L13.3333 7.33333V12.6667H13.9999C14.3681 12.6667 14.6666 12.9651 14.6666 13.3333C14.6666 13.6752 14.4092 13.957 14.0777 13.9955L13.9999 14H1.99992C1.63173 14 1.33325 13.7015 1.33325 13.3333C1.33325 12.9914 1.59061 12.7097 1.92217 12.6712L1.99992 12.6667H2.66659V3.33333C2.66659 2.63043 3.2105 2.05456 3.90041 2.00366L3.99992 2H8.66658ZM7.33325 10H5.33325V11.3333H7.33325V10ZM7.33325 7.33333H5.33325V8.66667H7.33325V7.33333ZM7.33325 4.66667H5.33325V6H7.33325V4.66667Z" fill="white"/>
</g>
</g>
</g>
</g>
<defs>
<clipPath id="clip0_374_8424">
<rect width="16" height="16" fill="white"/>
</clipPath>
</defs>
</svg>
