<svg width="24" height="24" viewBox="0 0 24 24" fill="none" xmlns="http://www.w3.org/2000/svg">
<g id="calendar_fill 1" clip-path="url(#clip0_374_8506)">
<g id="&#233;&#161;&#181;&#233;&#157;&#162;-1">
<g id="Business">
<g id="calendar_fill">
<path id="&#229;&#189;&#162;&#231;&#138;&#182;" d="M21 12V19C21 20.1046 20.1046 21 19 21H5C3.89543 21 3 20.1046 3 19V12H21ZM16 3C16.5523 3 17 3.44772 17 4V5H19C20.1046 5 21 5.89543 21 7V10H3V7C3 5.89543 3.89543 5 5 5H7V4C7 3.44772 7.44772 3 8 3C8.55228 3 9 3.44772 9 4V5H15V4C15 3.44772 15.4477 3 16 3Z" fill="#C9CFDB"/>
</g>
</g>
</g>
</g>
<defs>
<clipPath id="clip0_374_8506">
<rect width="24" height="24" fill="white"/>
</clipPath>
</defs>
</svg>
