<svg width="16" height="16" viewBox="0 0 16 16" fill="none" xmlns="http://www.w3.org/2000/svg">
<g id="chart_bar_fill 2" clip-path="url(#clip0_374_8418)">
<g id="&#233;&#161;&#181;&#233;&#157;&#162;-1">
<g id="Business">
<g id="chart_bar_fill">
<path id="&#229;&#189;&#162;&#231;&#138;&#182;" d="M8.66658 2C9.36951 2 9.94536 2.54392 9.99626 3.23383L9.99992 3.33333V14H5.99992V3.33333C5.99992 2.63043 6.54384 2.05456 7.23374 2.00366L7.33325 2H8.66658ZM13.3333 5.33333C14.0697 5.33333 14.6666 5.93029 14.6666 6.66667V12.6667C14.6666 13.4031 14.0697 14 13.3333 14H11.3333V5.33333H13.3333ZM4.66659 7.33333V14H2.66659C1.93021 14 1.33325 13.4031 1.33325 12.6667V8.66667C1.33325 7.93027 1.93021 7.33333 2.66659 7.33333H4.66659Z" fill="white"/>
</g>
</g>
</g>
</g>
<defs>
<clipPath id="clip0_374_8418">
<rect width="16" height="16" fill="white"/>
</clipPath>
</defs>
</svg>
