<svg width="24" height="24" viewBox="0 0 24 24" fill="none" xmlns="http://www.w3.org/2000/svg">
<g id="Cruise (&#232;&#136;&#170;&#230;&#181;&#183;)">
<path id="Vector" d="M18.9999 21L20.6953 16.3376C20.8689 15.8603 20.6571 15.3286 20.2028 15.1014L12.4471 11.2236C12.1656 11.0829 11.8342 11.0829 11.5527 11.2236L3.7971 15.1014C3.34278 15.3286 3.13093 15.8603 3.30452 16.3376L4.99994 21" stroke="#000C31" stroke-width="1.5" stroke-linejoin="round"/>
<path id="Vector_2" d="M17.5 7H6.5C5.9477 7 5.5 7.4477 5.5 8V14L11.5809 11.1934C11.8468 11.0707 12.1532 11.0707 12.4191 11.1934L18.5 14V8C18.5 7.4477 18.0523 7 17.5 7Z" stroke="#000C31" stroke-width="1.5" stroke-linecap="round" stroke-linejoin="round"/>
<path id="Vector_3" d="M14.5 7V3C14.5 2.44771 14.0523 2 13.5 2H10.5C9.9477 2 9.5 2.44771 9.5 3V7" stroke="#000C31" stroke-width="1.5" stroke-linecap="round" stroke-linejoin="round"/>
<path id="Vector_4" d="M12 16V20" stroke="#000C31" stroke-width="1.5" stroke-linecap="round"/>
<path id="Vector_5" d="M2 22C4 22 4 21 5.5 21C7 21 7 22 8.5 22C10 22 10.25 21 12 21C13.75 21 14 22 15.5 22C17 22 17 21 18.5 21C20 21 20 22 22 22" stroke="#000C31" stroke-width="1.5" stroke-linecap="round" stroke-linejoin="round"/>
</g>
</svg>
