<svg width="16" height="16" viewBox="0 0 16 16" fill="none" xmlns="http://www.w3.org/2000/svg">
<g id="Frame" clip-path="url(#clip0_374_8448)">
<g id="&#233;&#161;&#181;&#233;&#157;&#162;-1">
<g id="System">
<g id="time_fill">
<path id="&#229;&#189;&#162;&#231;&#138;&#182;" d="M7.99992 1.33337C11.6818 1.33337 14.6666 4.31814 14.6666 8.00004C14.6666 11.6819 11.6818 14.6667 7.99992 14.6667C4.31802 14.6667 1.33325 11.6819 1.33325 8.00004C1.33325 4.31814 4.31802 1.33337 7.99992 1.33337ZM7.99992 4.00004C7.63172 4.00004 7.33325 4.29852 7.33325 4.66671V8.00004C7.33325 8.17684 7.40352 8.34644 7.52852 8.47144L9.52852 10.4714C9.78885 10.7318 10.211 10.7318 10.4713 10.4714C10.7317 10.2111 10.7317 9.78897 10.4713 9.52864L8.66658 7.72391V4.66671C8.66658 4.29852 8.36812 4.00004 7.99992 4.00004Z" fill="white"/>
</g>
</g>
</g>
</g>
<defs>
<clipPath id="clip0_374_8448">
<rect width="16" height="16" fill="white"/>
</clipPath>
</defs>
</svg>
