<svg width="16" height="16" viewBox="0 0 16 16" fill="none" xmlns="http://www.w3.org/2000/svg">
<g id="link_2_fill 2" clip-path="url(#clip0_374_8442)">
<g id="&#233;&#161;&#181;&#233;&#157;&#162;-1">
<g id="File">
<g id="link_2_fill">
<path id="&#229;&#189;&#162;&#231;&#138;&#182;" d="M10.5927 6.35004C10.9588 5.98392 11.5381 5.96104 11.9309 6.28139L12.0069 6.35004L13.4211 7.76427C14.9832 9.32634 14.9832 11.859 13.4211 13.4211C11.8991 14.9431 9.45558 14.9822 7.88631 13.5382L7.76427 13.4211L6.35004 12.0069C5.95952 11.6163 5.95952 10.9832 6.35004 10.5927C6.71613 10.2265 7.29553 10.2037 7.68832 10.524L7.76427 10.5927L9.17847 12.0069C9.95953 12.7879 11.2259 12.7879 12.0069 12.0069C12.7567 11.2571 12.7867 10.0601 12.0968 9.27446L12.0069 9.17847L10.5927 7.76427C10.2021 7.37374 10.2021 6.74054 10.5927 6.35004ZM5.87854 5.87863C6.24466 5.51251 6.82401 5.48963 7.21678 5.80998L7.29273 5.87863L10.1212 8.70707C10.5117 9.0976 10.5117 9.73073 10.1212 10.1213C9.75508 10.4874 9.17567 10.5103 8.78288 10.1899L8.70693 10.1213L5.87854 7.29287C5.48802 6.90233 5.48802 6.26915 5.87854 5.87863ZM2.5788 2.5788C4.10084 1.05676 6.54429 1.01773 8.11362 2.46172L8.23567 2.5788L9.64987 3.99301C10.0404 4.38354 10.0404 5.0167 9.64987 5.40723C9.28374 5.77335 8.7044 5.79623 8.31162 5.47587L8.23567 5.40723L6.82147 3.99301C6.04039 3.21197 4.77406 3.21197 3.99301 3.99301C3.24321 4.74282 3.21322 5.93987 3.90304 6.72547L3.99301 6.82147L5.40723 8.23567C5.79776 8.6262 5.79776 9.25933 5.40723 9.64987C5.04111 10.016 4.46174 10.0389 4.06896 9.71852L3.99301 9.64987L2.5788 8.23567C1.0167 6.67354 1.0167 4.14089 2.5788 2.5788Z" fill="#3264FF"/>
</g>
</g>
</g>
</g>
<defs>
<clipPath id="clip0_374_8442">
<rect width="16" height="16" fill="white"/>
</clipPath>
</defs>
</svg>
