<svg width="16" height="16" viewBox="0 0 16 16" fill="none" xmlns="http://www.w3.org/2000/svg">
<g id="icon/position" clip-path="url(#clip0_374_8497)">
<g id="&#233;&#161;&#181;&#233;&#157;&#162;-1">
<g id="Map">
<g id="location_fill">
<path id="&#229;&#189;&#162;&#231;&#138;&#182;" d="M8 1.33337C11.3137 1.33337 14 4.01967 14 7.33337C14 9.38257 12.8827 11.0595 11.7056 12.263C11.0598 12.9233 10.3731 13.4649 9.7878 13.8742L9.50426 14.0678C9.45863 14.0982 9.41387 14.1277 9.37006 14.1562L9.11927 14.316L8.89525 14.4528L8.61807 14.614C8.23193 14.8321 7.76807 14.8321 7.38193 14.614L7.10475 14.4528L6.75844 14.239C6.71661 14.2123 6.67375 14.1847 6.62994 14.1562L6.35633 13.9738C5.74163 13.5544 4.99404 12.9783 4.29441 12.263C3.11727 11.0595 2 9.38257 2 7.33337C2 4.01967 4.68629 1.33337 8 1.33337ZM8 5.33337C6.8954 5.33337 6 6.22881 6 7.33337C6 8.43797 6.8954 9.33337 8 9.33337C9.1046 9.33337 10 8.43797 10 7.33337C10 6.22881 9.1046 5.33337 8 5.33337Z" fill="#3264FF"/>
</g>
</g>
</g>
</g>
<defs>
<clipPath id="clip0_374_8497">
<rect width="16" height="16" fill="white"/>
</clipPath>
</defs>
</svg>
