<svg width="24" height="24" viewBox="0 0 24 24" fill="none" xmlns="http://www.w3.org/2000/svg">
<g id="Transporter (&#233;&#128;&#129;&#232;&#180;&#167;&#232;&#189;&#166;)">
<path id="Vector" d="M21 4H10C9.4477 4 9 4.44771 9 5V16C9 16.5523 9.4477 17 10 17H21C21.5523 17 22 16.5523 22 16V5C22 4.44771 21.5523 4 21 4Z" stroke="#000C31" stroke-width="1.5" stroke-linejoin="round"/>
<path id="Vector_2" d="M2 17H9V10H5.5L2 13.2308V17Z" stroke="#000C31" stroke-width="1.5" stroke-linejoin="round"/>
<path id="Vector_3" d="M9 18C9 19.1046 8.10455 20 7 20C5.89545 20 5 19.1046 5 18" stroke="#000C31" stroke-width="1.5" stroke-linecap="round" stroke-linejoin="round"/>
<path id="Vector_4" d="M20 18C20 19.1046 19.1046 20 18 20C16.8954 20 16 19.1046 16 18" stroke="#000C31" stroke-width="1.5" stroke-linecap="round" stroke-linejoin="round"/>
</g>
</svg>
